<svg width="39" height="31" viewBox="0 0 39 31" fill="none" xmlns="http://www.w3.org/2000/svg">
<path d="M31.5616 0C31.8014 0.0654516 32.045 0.120246 32.281 0.197875C33.7816 0.691045 34.7619 2.00236 34.777 3.67442C34.8042 7.0779 34.7861 10.4821 34.7846 13.8856C34.779 13.9656 34.7686 14.0451 34.7536 14.1238H33.5381V13.6672C33.5381 10.3647 33.5381 7.06242 33.5381 3.76042C33.5381 2.53282 32.8331 1.59595 31.7228 1.33338C31.4889 1.28547 31.2503 1.26454 31.0118 1.27098C22.2801 1.26793 13.5488 1.26793 4.81767 1.27098C3.24895 1.27098 2.27322 2.25123 2.27246 3.82511C2.27246 7.58325 2.27246 11.3411 2.27246 15.0988V15.461L2.3776 15.5173C2.45778 15.41 2.52888 15.2936 2.61964 15.1954C4.36788 13.2882 6.11713 11.3822 7.86739 9.47754C8.80832 8.45162 10.6599 8.46152 11.5804 9.5095C14.1877 12.4777 16.807 15.4336 19.3802 18.4307C19.9097 19.0441 20.9353 19.1918 21.6198 18.5677C23.0123 17.3058 24.4252 16.0676 25.8374 14.8278C26.8592 13.9313 28.344 13.8734 29.3296 14.7038L28.6186 15.6422C28.5581 15.617 28.5036 15.5973 28.4514 15.5714C27.7631 15.2236 27.1837 15.2936 26.6074 15.7997C25.199 17.0433 23.7974 18.2952 22.3838 19.5335C21.6168 20.2055 20.7197 20.4468 19.7523 20.1081C19.3045 19.9529 18.901 19.6901 18.5769 19.3425C15.9531 16.3987 13.367 13.429 10.7704 10.4684C10.1562 9.76826 9.27273 9.7675 8.64191 10.4547C6.6113 12.6669 4.57815 14.8773 2.54249 17.0859C2.44669 17.1827 2.37205 17.2986 2.32333 17.4261C2.27462 17.5536 2.25292 17.69 2.25961 17.8264C2.27247 19.3569 2.26414 20.8882 2.26641 22.4194C2.26641 24.0177 3.23836 24.9888 4.83431 24.9888C10.496 24.9888 16.1575 24.9888 21.8188 24.9888H22.3331V26.2293C22.2 26.2354 22.0774 26.2461 21.9549 26.2461C16.2569 26.2461 10.5588 26.2461 4.86079 26.2461C2.93883 26.2461 1.4813 25.1045 1.10235 23.3289C1.05773 23.1204 1.02671 22.9088 0.992676 22.698V3.56787C1.01461 3.45828 1.04411 3.35021 1.05697 3.23985C1.13595 2.53494 1.41824 1.86869 1.86904 1.32327C2.31983 0.777858 2.91942 0.377119 3.59386 0.170478C3.80716 0.106548 4.02423 0.0563188 4.23904 0H31.5616Z" fill="white"/>
<path d="M38.9998 23.2147C39.024 27.1654 35.7693 30.4707 31.8142 30.508C27.8274 30.5461 24.5152 27.2872 24.4774 23.2901C24.4396 19.2199 27.664 15.9519 31.7575 15.9078C35.7149 15.872 38.9748 19.1621 38.9998 23.2147ZM31.7386 29.2515C35.0137 29.2827 37.7208 26.5954 37.7586 23.2764C37.7964 19.9574 35.1377 17.1879 31.8815 17.1551C28.4937 17.1201 25.7655 19.7633 25.7315 23.1143C25.6959 26.5162 28.3417 29.2195 31.7371 29.2515H31.7386Z" fill="white"/>
<path d="M20.4203 4.30386C21.3735 4.30204 22.2885 4.68089 22.9644 5.35725C23.6403 6.0336 24.0218 6.95218 24.0252 7.91131C24.029 8.39279 23.9379 8.87026 23.7573 9.31614C23.5767 9.76203 23.3101 10.1675 22.9729 10.5091C22.6357 10.8508 22.2346 11.1218 21.7927 11.3066C21.3508 11.4914 20.8769 11.5862 20.3984 11.5857C18.4235 11.5926 16.7768 9.92585 16.7821 7.92881C16.7877 6.96295 17.174 6.03879 17.8561 5.35917C18.5381 4.67955 19.4604 4.30002 20.4203 4.30386ZM20.4203 10.3315C21.0478 10.3311 21.6498 10.0814 22.0953 9.63674C22.5408 9.19205 22.7937 8.58835 22.7991 7.95697C22.7985 7.31771 22.5458 6.7048 22.0966 6.25277C21.6474 5.80074 21.0382 5.54652 20.4029 5.54592C19.7742 5.54733 19.1716 5.79936 18.7272 6.24684C18.2827 6.69431 18.0327 7.30076 18.0317 7.93338C18.0281 8.24966 18.0874 8.56346 18.2061 8.85636C18.3248 9.14925 18.5004 9.41532 18.7227 9.63895C18.9451 9.86257 19.2095 10.0392 19.5007 10.1585C19.7918 10.2779 20.1037 10.3374 20.418 10.3338L20.4203 10.3315Z" fill="white"/>
<path d="M32.3626 22.5762H35.5515V23.8243H32.3747V27.0322H31.1275V23.8357H27.9386V22.6028H31.1048V19.3729H32.3626V22.5762Z" fill="white"/>
</svg>
