<svg width="73" height="53" viewBox="0 0 73 53" fill="none" xmlns="http://www.w3.org/2000/svg">
<path d="M72.9458 6.55613C72.5828 8.35345 71.4625 9.65143 70.2012 10.9054C57.0362 23.9969 43.8853 37.1021 30.7488 50.2209C28.9522 52.014 26.8653 52.7743 24.4182 51.9119C23.5094 51.5691 22.6843 51.0371 21.9982 50.3514C15.2932 43.7267 8.63385 37.0567 1.95025 30.4107C0.940953 29.4063 0.354447 28.2034 0.0540771 26.8387V25.4202C0.365836 24.0882 0.864077 22.8554 1.91893 21.9178C4.39877 19.7133 7.72704 19.8708 10.2069 22.3433C15.363 27.47 20.5115 32.6047 25.6525 37.7475C25.8518 37.9447 25.9756 38.2156 26.2361 38.5986C26.4343 38.3119 26.6477 38.0358 26.8753 37.7716C38.8332 25.8462 50.791 13.9218 62.7489 1.99828C64.4828 0.269054 66.4943 -0.457251 68.8958 0.296006C70.9927 0.951383 72.2454 2.42385 72.7935 4.52333C72.8348 4.67937 72.8903 4.83257 72.9359 4.9872L72.9458 6.55613Z" fill="white"/>
</svg>
