<svg width="183" height="185" viewBox="0 0 183 185" fill="none" xmlns="http://www.w3.org/2000/svg">
<g opacity="0.1">
<circle cx="59.375" cy="3.125" r="3.125" fill="#C4C4C4"/>
<circle cx="3.125" cy="3.125" r="3.125" fill="#C4C4C4"/>
<circle cx="59.375" cy="35.625" r="3.125" fill="#C4C4C4"/>
<circle cx="3.125" cy="35.625" r="3.125" fill="#C4C4C4"/>
<circle cx="59.375" cy="68.125" r="3.125" fill="#C4C4C4"/>
<circle cx="3.125" cy="68.125" r="3.125" fill="#C4C4C4"/>
<circle cx="59.375" cy="100.625" r="3.125" fill="#C4C4C4"/>
<circle cx="3.125" cy="100.625" r="3.125" fill="#C4C4C4"/>
<circle cx="59.375" cy="133.125" r="3.125" fill="#C4C4C4"/>
<circle cx="3.125" cy="133.125" r="3.125" fill="#C4C4C4"/>
<circle cx="59.375" cy="165.625" r="3.125" fill="#C4C4C4"/>
<circle cx="3.125" cy="165.625" r="3.125" fill="#C4C4C4"/>
<circle cx="59.375" cy="19.375" r="3.125" fill="#C4C4C4"/>
<circle cx="3.125" cy="19.375" r="3.125" fill="#C4C4C4"/>
<circle cx="59.375" cy="51.875" r="3.125" fill="#C4C4C4"/>
<circle cx="3.125" cy="51.875" r="3.125" fill="#C4C4C4"/>
<circle cx="59.375" cy="84.375" r="3.125" fill="#C4C4C4"/>
<circle cx="3.125" cy="84.375" r="3.125" fill="#C4C4C4"/>
<circle cx="59.375" cy="116.875" r="3.125" fill="#C4C4C4"/>
<circle cx="3.125" cy="116.875" r="3.125" fill="#C4C4C4"/>
<circle cx="59.375" cy="149.375" r="3.125" fill="#C4C4C4"/>
<circle cx="3.125" cy="149.375" r="3.125" fill="#C4C4C4"/>
<circle cx="59.375" cy="181.875" r="3.125" fill="#C4C4C4"/>
<circle cx="3.125" cy="181.875" r="3.125" fill="#C4C4C4"/>
<circle cx="79.375" cy="3.125" r="3.125" fill="#C4C4C4"/>
<circle cx="23.125" cy="3.125" r="3.125" fill="#C4C4C4"/>
<circle cx="79.375" cy="35.625" r="3.125" fill="#C4C4C4"/>
<circle cx="23.125" cy="35.625" r="3.125" fill="#C4C4C4"/>
<circle cx="79.375" cy="68.125" r="3.125" fill="#C4C4C4"/>
<circle cx="23.125" cy="68.125" r="3.125" fill="#C4C4C4"/>
<circle cx="79.375" cy="100.625" r="3.125" fill="#C4C4C4"/>
<circle cx="23.125" cy="100.625" r="3.125" fill="#C4C4C4"/>
<circle cx="79.375" cy="133.125" r="3.125" fill="#C4C4C4"/>
<circle cx="23.125" cy="133.125" r="3.125" fill="#C4C4C4"/>
<circle cx="79.375" cy="165.625" r="3.125" fill="#C4C4C4"/>
<circle cx="23.125" cy="165.625" r="3.125" fill="#C4C4C4"/>
<circle cx="79.375" cy="19.375" r="3.125" fill="#C4C4C4"/>
<circle cx="23.125" cy="19.375" r="3.125" fill="#C4C4C4"/>
<circle cx="79.375" cy="51.875" r="3.125" fill="#C4C4C4"/>
<circle cx="23.125" cy="51.875" r="3.125" fill="#C4C4C4"/>
<circle cx="79.375" cy="84.375" r="3.125" fill="#C4C4C4"/>
<circle cx="23.125" cy="84.375" r="3.125" fill="#C4C4C4"/>
<circle cx="79.375" cy="116.875" r="3.125" fill="#C4C4C4"/>
<circle cx="23.125" cy="116.875" r="3.125" fill="#C4C4C4"/>
<circle cx="79.375" cy="149.375" r="3.125" fill="#C4C4C4"/>
<circle cx="23.125" cy="149.375" r="3.125" fill="#C4C4C4"/>
<circle cx="79.375" cy="181.875" r="3.125" fill="#C4C4C4"/>
<circle cx="23.125" cy="181.875" r="3.125" fill="#C4C4C4"/>
<circle cx="99.375" cy="3.125" r="3.125" fill="#C4C4C4"/>
<circle cx="43.125" cy="3.125" r="3.125" fill="#C4C4C4"/>
<circle cx="99.375" cy="35.625" r="3.125" fill="#C4C4C4"/>
<circle cx="43.125" cy="35.625" r="3.125" fill="#C4C4C4"/>
<circle cx="99.375" cy="68.125" r="3.125" fill="#C4C4C4"/>
<circle cx="43.125" cy="68.125" r="3.125" fill="#C4C4C4"/>
<circle cx="99.375" cy="100.625" r="3.125" fill="#C4C4C4"/>
<circle cx="43.125" cy="100.625" r="3.125" fill="#C4C4C4"/>
<circle cx="99.375" cy="133.125" r="3.125" fill="#C4C4C4"/>
<circle cx="43.125" cy="133.125" r="3.125" fill="#C4C4C4"/>
<circle cx="99.375" cy="165.625" r="3.125" fill="#C4C4C4"/>
<circle cx="43.125" cy="165.625" r="3.125" fill="#C4C4C4"/>
<circle cx="99.375" cy="19.375" r="3.125" fill="#C4C4C4"/>
<circle cx="43.125" cy="19.375" r="3.125" fill="#C4C4C4"/>
<circle cx="99.375" cy="51.875" r="3.125" fill="#C4C4C4"/>
<circle cx="43.125" cy="51.875" r="3.125" fill="#C4C4C4"/>
<circle cx="99.375" cy="84.375" r="3.125" fill="#C4C4C4"/>
<circle cx="43.125" cy="84.375" r="3.125" fill="#C4C4C4"/>
<circle cx="99.375" cy="116.875" r="3.125" fill="#C4C4C4"/>
<circle cx="43.125" cy="116.875" r="3.125" fill="#C4C4C4"/>
<circle cx="99.375" cy="149.375" r="3.125" fill="#C4C4C4"/>
<circle cx="43.125" cy="149.375" r="3.125" fill="#C4C4C4"/>
<circle cx="99.375" cy="181.875" r="3.125" fill="#C4C4C4"/>
<circle cx="43.125" cy="181.875" r="3.125" fill="#C4C4C4"/>
<circle cx="119.375" cy="3.125" r="3.125" fill="#C4C4C4"/>
<circle cx="119.375" cy="35.625" r="3.125" fill="#C4C4C4"/>
<circle cx="119.375" cy="68.125" r="3.125" fill="#C4C4C4"/>
<circle cx="119.375" cy="100.625" r="3.125" fill="#C4C4C4"/>
<circle cx="119.375" cy="133.125" r="3.125" fill="#C4C4C4"/>
<circle cx="119.375" cy="165.625" r="3.125" fill="#C4C4C4"/>
<circle cx="119.375" cy="19.375" r="3.125" fill="#C4C4C4"/>
<circle cx="119.375" cy="51.875" r="3.125" fill="#C4C4C4"/>
<circle cx="119.375" cy="84.375" r="3.125" fill="#C4C4C4"/>
<circle cx="119.375" cy="116.875" r="3.125" fill="#C4C4C4"/>
<circle cx="119.375" cy="149.375" r="3.125" fill="#C4C4C4"/>
<circle cx="119.375" cy="181.875" r="3.125" fill="#C4C4C4"/>
<circle cx="139.375" cy="3.125" r="3.125" fill="#C4C4C4"/>
<circle cx="139.375" cy="35.625" r="3.125" fill="#C4C4C4"/>
<circle cx="139.375" cy="68.125" r="3.125" fill="#C4C4C4"/>
<circle cx="139.375" cy="100.625" r="3.125" fill="#C4C4C4"/>
<circle cx="139.375" cy="133.125" r="3.125" fill="#C4C4C4"/>
<circle cx="139.375" cy="165.625" r="3.125" fill="#C4C4C4"/>
<circle cx="139.375" cy="19.375" r="3.125" fill="#C4C4C4"/>
<circle cx="139.375" cy="51.875" r="3.125" fill="#C4C4C4"/>
<circle cx="139.375" cy="84.375" r="3.125" fill="#C4C4C4"/>
<circle cx="139.375" cy="116.875" r="3.125" fill="#C4C4C4"/>
<circle cx="139.375" cy="149.375" r="3.125" fill="#C4C4C4"/>
<circle cx="139.375" cy="181.875" r="3.125" fill="#C4C4C4"/>
<circle cx="159.375" cy="3.125" r="3.125" fill="#C4C4C4"/>
<circle cx="159.375" cy="35.625" r="3.125" fill="#C4C4C4"/>
<circle cx="159.375" cy="68.125" r="3.125" fill="#C4C4C4"/>
<circle cx="159.375" cy="100.625" r="3.125" fill="#C4C4C4"/>
<circle cx="159.375" cy="133.125" r="3.125" fill="#C4C4C4"/>
<circle cx="159.375" cy="165.625" r="3.125" fill="#C4C4C4"/>
<circle cx="159.375" cy="19.375" r="3.125" fill="#C4C4C4"/>
<circle cx="159.375" cy="51.875" r="3.125" fill="#C4C4C4"/>
<circle cx="159.375" cy="84.375" r="3.125" fill="#C4C4C4"/>
<circle cx="159.375" cy="116.875" r="3.125" fill="#C4C4C4"/>
<circle cx="159.375" cy="149.375" r="3.125" fill="#C4C4C4"/>
<circle cx="159.375" cy="181.875" r="3.125" fill="#C4C4C4"/>
<circle cx="179.375" cy="3.125" r="3.125" fill="#C4C4C4"/>
<circle cx="179.375" cy="35.625" r="3.125" fill="#C4C4C4"/>
<circle cx="179.375" cy="68.125" r="3.125" fill="#C4C4C4"/>
<circle cx="179.375" cy="100.625" r="3.125" fill="#C4C4C4"/>
<circle cx="179.375" cy="133.125" r="3.125" fill="#C4C4C4"/>
<circle cx="179.375" cy="165.625" r="3.125" fill="#C4C4C4"/>
<circle cx="179.375" cy="19.375" r="3.125" fill="#C4C4C4"/>
<circle cx="179.375" cy="51.875" r="3.125" fill="#C4C4C4"/>
<circle cx="179.375" cy="84.375" r="3.125" fill="#C4C4C4"/>
<circle cx="179.375" cy="116.875" r="3.125" fill="#C4C4C4"/>
<circle cx="179.375" cy="149.375" r="3.125" fill="#C4C4C4"/>
<circle cx="179.375" cy="181.875" r="3.125" fill="#C4C4C4"/>
</g>
</svg>
