<svg width="29" height="30" viewBox="0 0 29 30" fill="none" xmlns="http://www.w3.org/2000/svg">
<path d="M19.9351 2.83761C21.4824 2.84248 22.965 3.49272 24.0591 4.64631C25.1533 5.7999 25.77 7.3631 25.7746 8.99451V21.307C25.77 22.9384 25.1533 24.5016 24.0591 25.6552C22.965 26.8088 21.4824 27.459 19.9351 27.4639H8.25729C6.70997 27.459 5.22735 26.8088 4.13323 25.6552C3.03911 24.5016 2.42239 22.9384 2.41777 21.307V8.99451C2.42239 7.3631 3.03911 5.7999 4.13323 4.64631C5.22735 3.49272 6.70997 2.84248 8.25729 2.83761H19.9351ZM19.9351 0.375244H8.25729C3.76097 0.375244 0.0823364 4.25382 0.0823364 8.99451V21.307C0.0823364 26.0477 3.76097 29.9263 8.25729 29.9263H19.9351C24.4314 29.9263 28.11 26.0477 28.11 21.307V8.99451C28.11 4.25382 24.4314 0.375244 19.9351 0.375244Z" fill="white"/>
<path d="M21.6868 8.9944C21.3403 8.9944 21.0016 8.88608 20.7136 8.68313C20.4255 8.48019 20.201 8.19174 20.0684 7.85426C19.9358 7.51677 19.9011 7.14542 19.9687 6.78715C20.0363 6.42888 20.2031 6.09979 20.4481 5.84149C20.6931 5.58319 21.0052 5.40729 21.345 5.33603C21.6848 5.26476 22.0371 5.30134 22.3571 5.44113C22.6772 5.58092 22.9508 5.81764 23.1433 6.12137C23.3358 6.42509 23.4385 6.78218 23.4385 7.14747C23.439 7.39016 23.394 7.63056 23.3062 7.85487C23.2183 8.07919 23.0893 8.283 22.9266 8.45461C22.7638 8.62621 22.5705 8.76224 22.3577 8.85487C22.145 8.9475 21.917 8.99492 21.6868 8.9944ZM14.0962 10.2252C15.0201 10.2252 15.9233 10.5141 16.6915 11.0553C17.4597 11.5965 18.0585 12.3658 18.4121 13.2658C18.7656 14.1657 18.8581 15.1561 18.6779 16.1115C18.4976 17.0669 18.0527 17.9445 17.3994 18.6334C16.7461 19.3222 15.9137 19.7913 15.0075 19.9813C14.1013 20.1714 13.1621 20.0738 12.3085 19.7011C11.4549 19.3283 10.7253 18.697 10.212 17.887C9.69865 17.077 9.42467 16.1248 9.42467 15.1506C9.42599 13.8447 9.91859 12.5928 10.7944 11.6694C11.6702 10.746 12.8576 10.2266 14.0962 10.2252ZM14.0962 7.76289C12.7103 7.76289 11.3556 8.19617 10.2033 9.00794C9.05104 9.81972 8.15294 10.9735 7.62261 12.3235C7.09227 13.6734 6.95351 15.1588 7.22387 16.5919C7.49424 18.025 8.16158 19.3413 9.14152 20.3745C10.1215 21.4077 11.37 22.1113 12.7292 22.3964C14.0884 22.6814 15.4972 22.5351 16.7776 21.976C18.0579 21.4168 19.1523 20.4699 19.9222 19.255C20.6921 18.0401 21.1031 16.6118 21.1031 15.1506C21.1031 13.1913 20.3649 11.3122 19.0508 9.9267C17.7368 8.54124 15.9545 7.76289 14.0962 7.76289Z" fill="white"/>
</svg>
