<svg width="29" height="32" viewBox="0 0 29 32" fill="none" xmlns="http://www.w3.org/2000/svg">
<path d="M26.6806 0.651367H2.47794C1.15547 0.651367 0 1.65465 0 3.03262V28.6074C0 29.9929 1.15547 31.2275 2.47794 31.2275H26.6735C28.0031 31.2275 29 29.9847 29 28.6074V3.03262C29.0077 1.65465 28.0031 0.651367 26.6806 0.651367ZM8.98934 26.1381H4.83484V12.5187H8.98934V26.1381ZM7.05579 10.448H7.02602C5.69642 10.448 4.83548 9.40448 4.83548 8.09817C4.83548 6.76797 5.71908 5.74899 7.07845 5.74899C8.43782 5.74899 9.26963 6.76046 9.29941 8.09817C9.29876 9.40448 8.43782 10.448 7.05579 10.448ZM24.1729 26.1381H20.0184V18.6913C20.0184 16.9072 19.4138 15.6883 17.9107 15.6883C16.7624 15.6883 16.0827 16.5073 15.7804 17.3051C15.6671 17.5918 15.6367 17.9822 15.6367 18.3808V26.1381H11.4822V12.5187H15.6367V14.4141C16.2413 13.5063 17.1857 12.2 19.3834 12.2C22.1105 12.2 24.1735 14.0953 24.1735 18.1815L24.1729 26.1381Z" fill="white"/>
</svg>
