<svg width="14" height="16" viewBox="0 0 14 16" fill="none" xmlns="http://www.w3.org/2000/svg">
<path fill-rule="evenodd" clip-rule="evenodd" d="M12 5H11V4C11 2.93913 10.5786 1.92172 9.82843 1.17157C9.07828 0.421424 8.06087 0 7 0C5.93913 0 4.92172 0.421424 4.17157 1.17157C3.42142 1.92172 3 2.93913 3 4V5H2C1.46957 5 0.960858 5.21071 0.585785 5.58578C0.210712 5.96086 0 6.46957 0 7V14C0 14.5304 0.210712 15.0391 0.585785 15.4142C0.960858 15.7893 1.46957 16 2 16H12C12.5304 16 13.0391 15.7893 13.4142 15.4142C13.7893 15.0391 14 14.5304 14 14V7C14 6.46957 13.7893 5.96086 13.4142 5.58578C13.0391 5.21071 12.5304 5 12 5ZM5 4C5 3.46957 5.21071 2.96086 5.58578 2.58578C5.96086 2.21071 6.46957 2 7 2C7.53043 2 8.03914 2.21071 8.41422 2.58578C8.78929 2.96086 9 3.46957 9 4V5H5V4ZM12 14H2V7H12V14Z" fill="white"/>
</svg>
