<svg width="9" height="16" viewBox="0 0 9 16" fill="none" xmlns="http://www.w3.org/2000/svg">
<g clip-path="url(#clip0_49_467)">
<path fill-rule="evenodd" clip-rule="evenodd" d="M2.41287 7.96478L8.70475 1.66936C8.89129 1.48137 8.99578 1.22862 8.99578 0.965388C8.99578 0.702154 8.89129 0.449464 8.70475 0.261477C8.51491 0.0802177 8.2612 -0.0211182 7.99716 -0.0211182C7.73313 -0.0211182 7.47942 0.0802177 7.28958 0.261477L0.285048 7.30107C0.095426 7.4895 -0.0109863 7.74434 -0.0109863 8.01002C-0.0109863 8.2757 0.095426 8.5306 0.285048 8.71902L7.28958 15.7586C7.47942 15.9399 7.73313 16.0412 7.99716 16.0412C8.2612 16.0412 8.51491 15.9399 8.70475 15.7586C8.89437 15.5702 9.00079 15.3153 9.00079 15.0496C9.00079 14.7839 8.89437 14.5291 8.70475 14.3407L2.41287 7.96478Z" fill="#535353"/>
</g>
<defs>
<clipPath id="clip0_49_467">
<rect width="9" height="16" fill="white"/>
</clipPath>
</defs>
</svg>
