<svg width="10" height="6" viewBox="0 0 10 6" fill="none" xmlns="http://www.w3.org/2000/svg">
<g clip-path="url(#clip0_4_54)">
<path fill-rule="evenodd" clip-rule="evenodd" d="M4.978 4.39142L1.04336 0.196833C0.925874 0.0724706 0.767903 0.0028114 0.603382 0.0028114C0.438862 0.00281141 0.28093 0.0724707 0.163438 0.196833C0.0501511 0.323394 -0.0131838 0.492536 -0.0131838 0.668557C-0.0131838 0.844579 0.0501511 1.01372 0.163438 1.14028L4.56319 5.80997C4.68095 5.93638 4.84023 6.00732 5.00628 6.00732C5.17233 6.00732 5.33164 5.93638 5.44941 5.80997L9.84915 1.14028C9.96244 1.01372 10.0258 0.844578 10.0258 0.668557C10.0258 0.492536 9.96244 0.323393 9.84915 0.196833C9.73139 0.0704179 9.57208 -0.000523509 9.40603 -0.000523502C9.23998 -0.000523495 9.0807 0.070418 8.96294 0.196833L4.978 4.39142Z" fill="white"/>
</g>
<defs>
<clipPath id="clip0_4_54">
<rect width="6" height="10" fill="white" transform="translate(0 6) rotate(-90)"/>
</clipPath>
</defs>
</svg>
