<svg width="9" height="16" viewBox="0 0 9 16" fill="none" xmlns="http://www.w3.org/2000/svg">
<g clip-path="url(#clip0_49_985)">
<path fill-rule="evenodd" clip-rule="evenodd" d="M2.41288 7.96478L8.70476 1.66936C8.8913 1.48137 8.99579 1.22862 8.99579 0.965388C8.99579 0.702154 8.8913 0.449464 8.70476 0.261477C8.51492 0.0802177 8.2612 -0.0211182 7.99717 -0.0211182C7.73314 -0.0211182 7.47943 0.0802177 7.28959 0.261477L0.285056 7.30107C0.0954336 7.4895 -0.0109787 7.74434 -0.0109787 8.01002C-0.0109787 8.2757 0.0954336 8.5306 0.285056 8.71902L7.28959 15.7586C7.47943 15.9399 7.73314 16.0412 7.99717 16.0412C8.2612 16.0412 8.51492 15.9399 8.70476 15.7586C8.89438 15.5702 9.00079 15.3153 9.00079 15.0496C9.00079 14.7839 8.89438 14.5291 8.70476 14.3407L2.41288 7.96478Z" fill="white"/>
</g>
<defs>
<clipPath id="clip0_49_985">
<rect width="9" height="16" fill="white"/>
</clipPath>
</defs>
</svg>
