<svg width="9" height="16" viewBox="0 0 9 16" fill="none" xmlns="http://www.w3.org/2000/svg">
<g clip-path="url(#clip0_49_743)">
<path fill-rule="evenodd" clip-rule="evenodd" d="M6.58713 8.03519L0.295249 14.3306C0.108706 14.5186 0.00421726 14.7713 0.00421723 15.0346C0.00421721 15.2978 0.108706 15.5505 0.295249 15.7385C0.48509 15.9198 0.738804 16.0211 1.00284 16.0211C1.26687 16.0211 1.52058 15.9198 1.71042 15.7385L8.71495 8.69889C8.90457 8.51047 9.01099 8.25563 9.01099 7.98995C9.01099 7.72427 8.90457 7.46937 8.71495 7.28095L1.71042 0.241349C1.52058 0.0600894 1.26687 -0.0412471 1.00284 -0.0412471C0.738805 -0.0412471 0.485092 0.0600893 0.29525 0.241348C0.105628 0.429771 -0.000784487 0.684673 -0.00078451 0.950354C-0.000784533 1.21603 0.105628 1.47087 0.29525 1.6593L6.58713 8.03519Z" fill="#3055DA"/>
</g>
<defs>
<clipPath id="clip0_49_743">
<rect width="9" height="16" fill="white" transform="translate(9 16) rotate(-180)"/>
</clipPath>
</defs>
</svg>
