<svg width="10" height="6" viewBox="0 0 10 6" fill="none" xmlns="http://www.w3.org/2000/svg">
<g clip-path="url(#clip0_49_625)">
<path fill-rule="evenodd" clip-rule="evenodd" d="M5.022 1.60858L8.95663 5.80317C9.07413 5.92753 9.2321 5.99719 9.39662 5.99719C9.56114 5.99719 9.71907 5.92753 9.83656 5.80317C9.94985 5.67661 10.0132 5.50746 10.0132 5.33144C10.0132 5.15542 9.94985 4.98628 9.83656 4.85972L5.43681 0.190032C5.31905 0.0636171 5.15977 -0.00732443 4.99372 -0.00732444C4.82767 -0.00732445 4.66836 0.0636171 4.55059 0.190032L0.150846 4.85972C0.0375583 4.98628 -0.0257761 5.15542 -0.0257761 5.33144C-0.0257762 5.50746 0.0375583 5.67661 0.150846 5.80317C0.26861 5.92958 0.427924 6.00052 0.593974 6.00052C0.760024 6.00052 0.9193 5.92958 1.03706 5.80317L5.022 1.60858Z" fill="white"/>
</g>
<defs>
<clipPath id="clip0_49_625">
<rect width="6" height="10" fill="white" transform="translate(10) rotate(90)"/>
</clipPath>
</defs>
</svg>
