<svg width="33" height="32" viewBox="0 0 33 32" fill="none" xmlns="http://www.w3.org/2000/svg">
<path d="M33 4.27433C31.7621 4.89728 30.4524 5.30769 29.1122 5.49259C30.5206 4.53739 31.5798 3.01989 32.0911 1.22468C30.7595 2.12651 29.3051 2.75928 27.7901 3.09587C27.1522 2.32154 26.385 1.70554 25.5351 1.28531C24.6852 0.865083 23.7704 0.649403 22.8463 0.651381C19.1049 0.651381 16.0772 4.10711 16.0772 8.36706C16.0745 8.95961 16.1332 9.55038 16.2518 10.1268C13.569 9.98111 10.9419 9.18846 8.53874 7.79954C6.13555 6.41061 4.00915 4.456 2.29556 2.06075C1.6944 3.23452 1.37647 4.57375 1.375 5.93849C1.375 8.6139 2.58019 10.9788 4.4 12.3642C3.32181 12.3346 2.26572 12.0041 1.32138 11.4008V11.4963C1.32138 15.2387 3.65888 18.3521 6.75263 19.0607C6.17085 19.2403 5.57134 19.3314 4.96925 19.3315C4.54202 19.3323 4.11577 19.2843 3.69669 19.1881C4.55675 22.2537 7.05994 24.4832 10.0251 24.5469C7.6157 26.6975 4.65755 27.8599 1.61563 27.8514C1.07567 27.8504 0.536226 27.8132 0 27.7399C3.09456 30.0285 6.69174 31.239 10.3634 31.2275C22.8319 31.2275 29.6436 19.4668 29.6436 9.26683C29.6436 8.9324 29.6361 8.59798 29.6223 8.27151C30.9444 7.18229 32.0882 5.8287 33 4.27433Z" fill="white"/>
</svg>
