<svg width="36" height="32" viewBox="0 0 36 32" fill="none" xmlns="http://www.w3.org/2000/svg">
<path d="M35.7687 7.40262C35.7687 3.81958 33.4411 0.937214 30.5649 0.937214C26.6691 0.73099 22.6959 0.651367 18.6356 0.651367H17.3698C13.3193 0.651367 9.33911 0.73099 5.4433 0.938011C2.57419 0.938011 0.246552 3.8363 0.246552 7.41935C0.070749 10.2531 -0.00379165 13.0877 0.00042763 15.9223C-0.00660451 18.7569 0.0730931 21.5941 0.23952 24.434C0.23952 28.0171 2.56716 30.9233 5.43627 30.9233C9.52897 31.1383 13.7272 31.2339 17.9957 31.2259C22.2712 31.2418 26.4577 31.141 30.5551 30.9233C33.4312 30.9233 35.7588 28.0171 35.7588 24.434C35.9276 21.5915 36.005 18.7569 35.9979 15.9144C36.0139 13.0798 35.9375 10.2425 35.7687 7.40262ZM14.557 23.7334V8.08739L24.7535 15.9064L14.557 23.7334Z" fill="white"/>
</svg>
